<svg version="1.1" xmlns="http://www.w3.org/2000/svg" xmlns:xlink="http://www.w3.org/1999/xlink" width="115.33884" height="58.50984" viewBox="0,0,115.33884,58.50984"><defs><linearGradient x1="237.5" y1="207.336" x2="237.5" y2="152.664" gradientUnits="userSpaceOnUse" id="color-1"><stop offset="0" stop-color="#007cf5"/><stop offset="1" stop-color="#00a3ff"/></linearGradient><linearGradient x1="240" y1="167.21873" x2="240" y2="192.78127" gradientUnits="userSpaceOnUse" id="color-2"><stop offset="0" stop-color="#ffffff"/><stop offset="1" stop-color="#dddddd"/></linearGradient></defs><g transform="translate(-180.41166,-152.664)"><g data-paper-data="{&quot;isPaintingLayer&quot;:true}" fill-rule="nonzero" stroke="none" stroke-width="1" stroke-linejoin="miter" stroke-miterlimit="10" stroke-dasharray="" stroke-dashoffset="0" style="mix-blend-mode: normal"><path d="M291.91166,165.10684v37.463c0,4.752 -3.851,8.604 -8.605,8.604h-94.291c-4.752,0 -8.604,-3.852 -8.604,-8.604v-37.463c0,-4.751 3.852,-8.605 8.604,-8.605h94.292c4.751,0 8.605,3.853 8.605,8.605z" data-paper-data="{&quot;index&quot;:null}" fill-opacity="0.17162" fill="#000000" stroke-linecap="butt"/><path d="M295.7495,161.269v37.463c0,4.752 -3.851,8.604 -8.605,8.604h-94.291c-4.752,0 -8.604,-3.852 -8.604,-8.604v-37.463c0,-4.751 3.852,-8.605 8.604,-8.605h94.292c4.751,0 8.605,3.853 8.605,8.605z" data-paper-data="{&quot;index&quot;:null}" fill="url(#color-1)" stroke-linecap="butt"/><path d="M193.79417,192.42185v-25.20312h4.14063v25.20312zM209.80979,192.42185v-25.20312h4.14063v25.20312zM196.63792,181.2656v-3.78125h14.07813v3.78125zM226.80116,192.78123c-1.67709,0 -3.20312,-0.40104 -4.57812,-1.20312c-1.36459,-0.80209 -2.44791,-1.88541 -3.25,-3.25c-0.80209,-1.375 -1.20312,-2.90104 -1.20312,-4.57812c0,-1.6875 0.40104,-3.20312 1.20313,-4.54687c0.80209,-1.34375 1.88541,-2.41666 3.25,-3.21875c1.375,-0.80209 2.90104,-1.20312 4.57813,-1.20312c1.70834,0 3.24479,0.39584 4.60938,1.1875c1.375,0.79166 2.46354,1.86459 3.26563,3.21875c0.80209,1.35416 1.20313,2.875 1.20313,4.5625c0,1.67709 -0.40104,3.20313 -1.20312,4.57813c-0.80209,1.36459 -1.89062,2.44791 -3.26562,3.25c-1.36459,0.80209 -2.90104,1.20313 -4.60937,1.20313zM226.80116,188.96873c0.98959,0 1.85938,-0.21875 2.60938,-0.65625c0.76041,-0.44791 1.34896,-1.06771 1.76563,-1.85937c0.42709,-0.79166 0.64063,-1.69271 0.64063,-2.70312c0,-1.01041 -0.21875,-1.89584 -0.65625,-2.65625c-0.42709,-0.77084 -1.01562,-1.38021 -1.76562,-1.82812c-0.73959,-0.44791 -1.60416,-0.67187 -2.59375,-0.67187c-0.95834,0 -1.81771,0.22396 -2.57812,0.67188c-0.75,0.44791 -1.33854,1.05729 -1.76562,1.82813c-0.41666,0.76041 -0.625,1.64584 -0.625,2.65625c0,1.01041 0.20834,1.91146 0.625,2.70313c0.42709,0.79166 1.01563,1.41146 1.76563,1.85938c0.76041,0.4375 1.61979,0.65625 2.57813,0.65625zM239.16291,192.42185v-17.28125h3.95313v17.28125zM250.64729,192.42185v-10.29687c0,-1.15625 -0.36459,-2.05209 -1.09375,-2.6875c-0.71875,-0.63541 -1.60416,-0.95312 -2.65625,-0.95312c-0.71875,0 -1.36459,0.14584 -1.9375,0.4375c-0.5625,0.29166 -1.01041,0.70834 -1.34375,1.25c-0.33334,0.53125 -0.5,1.18229 -0.5,1.95313l-1.54687,-0.85937c0,-1.32291 0.28646,-2.46354 0.85938,-3.42187c0.58334,-0.95834 1.36459,-1.70834 2.34375,-2.25c0.97916,-0.54166 2.08334,-0.8125 3.3125,-0.8125c1.21875,0 2.31771,0.26563 3.29688,0.79688c0.98959,0.52084 1.77084,1.26563 2.34375,2.23438c0.58334,0.95834 0.875,2.10938 0.875,3.45313v11.15625zM262.11604,192.42185v-10.29687c0,-1.15625 -0.35937,-2.05209 -1.07812,-2.6875c-0.71875,-0.63541 -1.60417,-0.95312 -2.65625,-0.95312c-0.69792,0 -1.33854,0.14584 -1.92187,0.4375c-0.57291,0.29166 -1.02604,0.70834 -1.35937,1.25c-0.33334,0.53125 -0.5,1.18229 -0.5,1.95313l-2.23437,-0.85937c0.125,-1.32291 0.51041,-2.46354 1.15625,-3.42187c0.64584,-0.95834 1.47916,-1.70834 2.5,-2.25c1.02083,-0.54166 2.14063,-0.8125 3.35938,-0.8125c1.25,0 2.38021,0.26563 3.39063,0.79688c1.01042,0.52084 1.8125,1.26563 2.40625,2.23438c0.60417,0.95834 0.90625,2.10938 0.90625,3.45313v11.15625zM278.17456,192.78123c-1.72917,0 -3.28646,-0.39062 -4.67187,-1.17187c-1.375,-0.78125 -2.46354,-1.85416 -3.26562,-3.21875c-0.80208,-1.36459 -1.20312,-2.90104 -1.20312,-4.60937c0,-1.70834 0.39583,-3.23959 1.1875,-4.59375c0.79167,-1.35416 1.86458,-2.42709 3.21875,-3.21875c1.36458,-0.79166 2.875,-1.1875 4.53125,-1.1875c1.60417,0 3.02083,0.375 4.25,1.125c1.23958,0.73959 2.21354,1.76041 2.92188,3.0625c0.70833,1.29166 1.0625,2.76563 1.0625,4.42188c0,0.28125 -0.02083,0.57291 -0.0625,0.875c-0.03125,0.30209 -0.08333,0.63541 -0.15625,1h-14.17187v-3.25h12.125l-1.46875,1.29688c-0.05208,-1.05209 -0.26042,-1.9375 -0.625,-2.65625c-0.35417,-0.72916 -0.86458,-1.28125 -1.53125,-1.65625c-0.65625,-0.38541 -1.46354,-0.57812 -2.42187,-0.57812c-1.01042,0 -1.89062,0.21875 -2.64062,0.65625c-0.73958,0.42709 -1.3125,1.03125 -1.71875,1.8125c-0.40625,0.77084 -0.60937,1.69791 -0.60937,2.78125c0,1.08334 0.21354,2.03125 0.64063,2.84375c0.4375,0.8125 1.05208,1.44271 1.84375,1.89063c0.79167,0.44791 1.70313,0.67188 2.73438,0.67188c0.88542,0 1.70313,-0.15625 2.45313,-0.46875c0.76042,-0.3125 1.40625,-0.77084 1.9375,-1.375l2.51563,2.5625c-0.83333,0.97916 -1.85417,1.72396 -3.0625,2.23438c-1.19792,0.5 -2.46875,0.75 -3.8125,0.75z" fill="url(#color-2)" stroke-linecap="square"/></g></g></svg>
